<svg width="14" height="14" viewBox="0 0 14 14" fill="none" xmlns="http://www.w3.org/2000/svg">
<g clip-path="url(#clip0_533_2724)">
<path d="M10.8801 0.542491L3.76807 7.65449C3.49644 7.92466 3.2811 8.24602 3.13451 8.59998C2.98792 8.95394 2.91299 9.33346 2.91407 9.71657V10.5C2.91407 10.6547 2.97553 10.8031 3.08493 10.9125C3.19432 11.0219 3.3427 11.0833 3.49741 11.0833H4.28082C4.66394 11.0844 5.04346 11.0095 5.39742 10.8629C5.75137 10.7163 6.07274 10.501 6.34291 10.2293L13.4549 3.11732C13.7958 2.77559 13.9872 2.3126 13.9872 1.82991C13.9872 1.34721 13.7958 0.884225 13.4549 0.542491C13.1082 0.211096 12.6471 0.0261536 12.1675 0.0261536C11.6879 0.0261536 11.2268 0.211096 10.8801 0.542491ZM12.6301 2.29249L5.51807 9.40449C5.18915 9.73141 4.74458 9.91544 4.28082 9.91666H4.08074V9.71657C4.08196 9.25282 4.26599 8.80825 4.59291 8.47932L11.7049 1.36732C11.8295 1.2483 11.9952 1.18188 12.1675 1.18188C12.3398 1.18188 12.5055 1.2483 12.6301 1.36732C12.7525 1.49012 12.8213 1.65648 12.8213 1.82991C12.8213 2.00334 12.7525 2.16969 12.6301 2.29249Z" fill="#111827" fill-opacity="0.3"/>
<path d="M13.4167 5.23775C13.262 5.23775 13.1136 5.29921 13.0042 5.40861C12.8948 5.518 12.8333 5.66637 12.8333 5.82108V8.75H10.5C10.0359 8.75 9.59075 8.93437 9.26256 9.26256C8.93437 9.59075 8.75 10.0359 8.75 10.5V12.8333H2.91667C2.45254 12.8333 2.00742 12.649 1.67923 12.3208C1.35104 11.9926 1.16667 11.5475 1.16667 11.0833V2.91667C1.16667 2.45254 1.35104 2.00742 1.67923 1.67923C2.00742 1.35104 2.45254 1.16667 2.91667 1.16667H8.19117C8.34588 1.16667 8.49425 1.10521 8.60365 0.995812C8.71304 0.886416 8.7745 0.738043 8.7745 0.583333C8.7745 0.428624 8.71304 0.280251 8.60365 0.170854C8.49425 0.0614582 8.34588 0 8.19117 0L2.91667 0C2.1434 0.00092625 1.40208 0.308515 0.855295 0.855295C0.308515 1.40208 0.00092625 2.1434 0 2.91667L0 11.0833C0.00092625 11.8566 0.308515 12.5979 0.855295 13.1447C1.40208 13.6915 2.1434 13.9991 2.91667 14H9.53342C9.91662 14.0011 10.2962 13.9262 10.6503 13.7796C11.0043 13.633 11.3258 13.4177 11.5961 13.146L13.1454 11.5955C13.4171 11.3253 13.6325 11.004 13.7792 10.65C13.9259 10.2961 14.0009 9.91656 14 9.53342V5.82108C14 5.66637 13.9385 5.518 13.8291 5.40861C13.7198 5.29921 13.5714 5.23775 13.4167 5.23775ZM10.7713 12.3212C10.5368 12.5551 10.2402 12.717 9.91667 12.7878V10.5C9.91667 10.3453 9.97812 10.1969 10.0875 10.0875C10.1969 9.97812 10.3453 9.91667 10.5 9.91667H12.7896C12.7174 10.2396 12.5557 10.5355 12.3229 10.7707L10.7713 12.3212Z" fill="#111827" fill-opacity="0.3"/>
</g>
<defs>
<clipPath id="clip0_533_2724">
<rect width="14" height="14" fill="white"/>
</clipPath>
</defs>
</svg>
