<svg width="16" height="16" viewBox="0 0 16 16" fill="none" xmlns="http://www.w3.org/2000/svg">
<g clip-path="url(#clip0_565_363)">
<path d="M5.33333 10.6667C5.33333 11.2187 4.88533 11.6667 4.33333 11.6667C3.78133 11.6667 3.33333 11.2187 3.33333 10.6667C3.33333 10.1147 3.78133 9.66667 4.33333 9.66667C4.88533 9.66667 5.33333 10.1147 5.33333 10.6667ZM4.33333 3C3.78133 3 3.33333 3.448 3.33333 4C3.33333 4.552 3.78133 5 4.33333 5C4.88533 5 5.33333 4.552 5.33333 4C5.33333 3.448 4.88533 3 4.33333 3ZM4.33333 6.33333C3.78133 6.33333 3.33333 6.78133 3.33333 7.33333C3.33333 7.88533 3.78133 8.33333 4.33333 8.33333C4.88533 8.33333 5.33333 7.88533 5.33333 7.33333C5.33333 6.78133 4.88533 6.33333 4.33333 6.33333ZM12.6667 0H3.33333C1.49533 0 0 1.49533 0 3.33333V12C0 13.838 1.49533 15.3333 3.33333 15.3333H5.33333C5.70133 15.3333 6 15.0353 6 14.6667C6 14.298 5.70133 14 5.33333 14H3.33333C2.23067 14 1.33333 13.1027 1.33333 12V3.33333C1.33333 2.23067 2.23067 1.33333 3.33333 1.33333H12.6667C13.7693 1.33333 14.6667 2.23067 14.6667 3.33333V9.33333C14.6667 9.702 14.9653 10 15.3333 10C15.7013 10 16 9.702 16 9.33333V3.33333C16 1.49533 14.5047 0 12.6667 0ZM7.33333 4.66667H12C12.368 4.66667 12.6667 4.368 12.6667 4C12.6667 3.632 12.368 3.33333 12 3.33333H7.33333C6.96533 3.33333 6.66667 3.632 6.66667 4C6.66667 4.368 6.96533 4.66667 7.33333 4.66667ZM7.33333 8H12C12.368 8 12.6667 7.70133 12.6667 7.33333C12.6667 6.96533 12.368 6.66667 12 6.66667H7.33333C6.96533 6.66667 6.66667 6.96533 6.66667 7.33333C6.66667 7.70133 6.96533 8 7.33333 8ZM15.8033 12.366C16.064 12.7513 16.064 13.2487 15.8033 13.634C15.206 14.5173 13.8307 16 11.3333 16C8.836 16 7.46067 14.5173 6.86267 13.634C6.602 13.248 6.602 12.7507 6.86267 12.366C7.46 11.4827 8.83467 10 11.3327 10C13.8307 10 15.206 11.4827 15.8033 12.366ZM14.62 13C14.1333 12.3293 13.1113 11.3333 11.3333 11.3333C9.55533 11.3333 8.53267 12.33 8.04667 13C8.53267 13.6707 9.55533 14.6667 11.3333 14.6667C13.1113 14.6667 14.1333 13.6707 14.62 13ZM11.3333 12C10.7813 12 10.3333 12.448 10.3333 13C10.3333 13.552 10.7813 14 11.3333 14C11.8853 14 12.3333 13.552 12.3333 13C12.3333 12.448 11.8853 12 11.3333 12Z" fill="#9E9E9E"/>
</g>
<defs>
<clipPath id="clip0_565_363">
<rect width="16" height="16" fill="white"/>
</clipPath>
</defs>
</svg>
